<svg width="77" height="77" viewBox="0 0 77 77" fill="none" xmlns="http://www.w3.org/2000/svg">
<rect width="77" height="77" rx="8" fill="#24A19C"/>
<path d="M53.6669 52.2732H36.585C35.7375 52.2732 35.0407 51.5764 35.0407 50.7289C35.0407 49.8814 35.7375 49.1846 36.585 49.1846H53.6669C54.5144 49.1846 55.2112 49.8814 55.2112 50.7289C55.2112 51.5952 54.5144 52.2732 53.6669 52.2732Z" fill="white"/>
<path d="M53.6669 40.427H36.585C35.7375 40.427 35.0407 39.7302 35.0407 38.8827C35.0407 38.0352 35.7375 37.3384 36.585 37.3384H53.6669C54.5144 37.3384 55.2112 38.0352 55.2112 38.8827C55.2112 39.7302 54.5144 40.427 53.6669 40.427Z" fill="white"/>
<path d="M53.6669 28.5623H36.585C35.7375 28.5623 35.0407 27.8655 35.0407 27.018C35.0407 26.1705 35.7375 25.4736 36.585 25.4736H53.6669C54.5144 25.4736 55.2112 26.1705 55.2112 27.018C55.2112 27.8655 54.5144 28.5623 53.6669 28.5623Z" fill="white"/>
<path d="M25.2472 31.123C24.8328 31.123 24.4373 30.9535 24.1548 30.671L22.441 28.9571C21.8383 28.3545 21.8383 27.3751 22.441 26.7725C23.0437 26.1698 24.023 26.1698 24.6257 26.7725L25.2472 27.394L29.2775 23.3636C29.8802 22.761 30.8595 22.761 31.4622 23.3636C32.0648 23.9663 32.0648 24.9456 31.4622 25.5483L26.3395 30.671C26.0382 30.9535 25.6615 31.123 25.2472 31.123Z" fill="white"/>
<path d="M25.2472 42.9887C24.8517 42.9887 24.4562 42.838 24.1548 42.5367L22.441 40.8228C21.8383 40.2202 21.8383 39.2408 22.441 38.6382C23.0437 38.0355 24.023 38.0355 24.6257 38.6382L25.2472 39.2597L29.2775 35.2293C29.8802 34.6267 30.8595 34.6267 31.4622 35.2293C32.0648 35.832 32.0648 36.8113 31.4622 37.414L26.3395 42.5367C26.0382 42.838 25.6427 42.9887 25.2472 42.9887Z" fill="white"/>
<path d="M25.2472 54.2885C24.8517 54.2885 24.4562 54.1378 24.1548 53.8365L22.441 52.1227C21.8383 51.52 21.8383 50.5407 22.441 49.938C23.0437 49.3353 24.023 49.3353 24.6257 49.938L25.2472 50.5595L29.2775 46.5291C29.8802 45.9265 30.8595 45.9265 31.4622 46.5291C32.0648 47.1318 32.0648 48.1112 31.4622 48.7138L26.3395 53.8365C26.0382 54.1378 25.6427 54.2885 25.2472 54.2885Z" fill="white"/>
</svg>
